<?xml version="1.0" encoding="UTF-8" standalone="no"?>
<svg width="35px" height="35px" viewBox="0 0 35 35" version="1.1" xmlns="http://www.w3.org/2000/svg" xmlns:xlink="http://www.w3.org/1999/xlink">
    <!-- Generator: Sketch 3.8.3 (29802) - http://www.bohemiancoding.com/sketch -->
    <title>Facebook</title>
    <desc>Created with Sketch.</desc>
    <defs></defs>
    <g id="Page-1" stroke="none" stroke-width="1" fill="none" fill-rule="evenodd">
        <g id="Artboard-1" transform="translate(-1342.000000, -42.000000)" fill="#43619C">
            <g id="footer" transform="translate(0.000000, -4.000000)">
                <g id="Folllow-Us" transform="translate(1130.000000, 0.000000)">
                    <g id="social" transform="translate(82.000000, 0.000000)">
                        <path d="M147.502305,46 C137.836165,46 130,53.8361649 130,63.5023048 C130,73.1638351 137.836165,81 147.502305,81 C157.163835,81 165,73.1638351 165,63.5023048 C165,53.8361649 157.163835,46 147.502305,46 L147.502305,46 Z M156.016067,70.9005663 C156.016067,71.4168313 155.762544,71.7533254 155.250889,71.7533254 L150.945608,71.7533254 L150.945608,65.3000132 L153.135124,65.3000132 L153.467009,62.5343079 L150.945608,62.5343079 L150.945608,61.0961412 C150.945608,60.3586198 151.143817,59.7686027 152.204004,59.7686027 L153.711313,59.7686027 L153.711313,57.569867 C153.250362,57.5376004 152.535888,57.4684578 151.600158,57.4684578 C149.654945,57.4684578 148.179903,58.657711 148.179903,60.8426182 L148.179903,62.5343079 L145.875148,62.5343079 L145.875148,65.3000132 L148.179903,65.3000132 L148.179903,71.7533254 L140.196233,71.7533254 C139.679968,71.7533254 139.421836,71.4168313 139.421836,70.9005663 L139.421836,55.8459107 C139.421836,55.3296457 139.679968,54.698143 140.196233,54.698143 L155.250889,54.698143 C155.762544,54.698143 156.016067,55.3296457 156.016067,55.8459107 L156.016067,70.9005663 L156.016067,70.9005663 Z" id="Facebook"></path>
                    </g>
                </g>
            </g>
        </g>
    </g>
</svg>