<?xml version="1.0" encoding="UTF-8" standalone="no"?>
<svg width="35px" height="35px" viewBox="0 0 35 35" version="1.1" xmlns="http://www.w3.org/2000/svg" xmlns:xlink="http://www.w3.org/1999/xlink">
    <!-- Generator: Sketch 3.8.3 (29802) - http://www.bohemiancoding.com/sketch -->
    <title>Group 2</title>
    <desc>Created with Sketch.</desc>
    <defs></defs>
    <g id="Page-1" stroke="none" stroke-width="1" fill="none" fill-rule="evenodd">
        <g id="Artboard-1" transform="translate(-1277.000000, -12.000000)">
            <g id="footer" transform="translate(0.000000, -8.000000)">
                <g id="Folllow-Us" transform="translate(1130.000000, 0.000000)">
                    <g id="social" transform="translate(82.000000, 0.000000)">
                        <g id="Group-2" transform="translate(65.000000, 20.000000)">
                            <path d="M34.7695455,17.3159091 C34.7695455,26.8468182 27.0431818,34.5731818 17.5122727,34.5731818 C7.98136364,34.5731818 0.255,26.8468182 0.255,17.3159091 C0.255,7.785 7.98136364,0.0586363636 17.5122727,0.0586363636 C27.0431818,0.0586363636 34.7695455,7.785 34.7695455,17.3159091" id="Linkedin-Circle" fill="#187FB8"></path>
                            <path d="M9.85318182,14.7072727 L13.1213636,14.7072727 L13.1213636,25.0627273 L9.85318182,25.0627273 L9.85318182,14.7072727 Z M22.0509091,14.6077273 C20.1786364,14.6077273 19.0054545,15.6218182 18.7886364,16.3327273 L18.7886364,14.7072727 L15.1172727,14.7072727 C15.1645455,15.5704545 15.1172727,25.0627273 15.1172727,25.0627273 L18.7886364,25.0627273 L18.7886364,19.4590909 C18.7886364,19.1477273 18.7740909,18.8363636 18.8686364,18.6127273 C19.1209091,17.99 19.6631818,17.3436364 20.6381818,17.3436364 C21.9131818,17.3436364 22.4927273,18.3013636 22.4927273,19.7040909 L22.4927273,25.0627273 L26.1986364,25.0627273 L26.1986364,19.305 C26.1986364,16.0972727 24.3736364,14.6077273 22.0509091,14.6077273 Z M11.4268182,9.81909091 C10.22,9.81909091 9.43045455,10.5940909 9.43045455,11.6168182 C9.43045455,12.6204545 10.1977273,13.4118182 11.3804545,13.4118182 L11.4040909,13.4118182 C12.6327273,13.4118182 13.3977273,12.6172727 13.3977273,11.6140909 C13.3740909,10.5922727 12.6327273,9.81909091 11.4268182,9.81909091 Z" id="Linkedin" fill="#FFFFFF"></path>
                        </g>
                    </g>
                </g>
            </g>
        </g>
    </g>
</svg>