<?xml version="1.0" encoding="UTF-8" standalone="no"?>
<svg width="35px" height="35px" viewBox="0 0 35 35" version="1.1" xmlns="http://www.w3.org/2000/svg" xmlns:xlink="http://www.w3.org/1999/xlink">
    <!-- Generator: Sketch 3.8.3 (29802) - http://www.bohemiancoding.com/sketch -->
    <title>Group 3</title>
    <desc>Created with Sketch.</desc>
    <defs></defs>
    <g id="Page-1" stroke="none" stroke-width="1" fill="none" fill-rule="evenodd">
        <g id="Artboard-1" transform="translate(-1408.000000, -2.000000)">
            <g id="footer" transform="translate(0.000000, -8.000000)">
                <g id="Folllow-Us" transform="translate(1130.000000, 0.000000)">
                    <g id="social" transform="translate(82.000000, 0.000000)">
                        <g id="Group-3" transform="translate(196.000000, 10.000000)">
                            <path d="M34.7695455,17.3159091 C34.7695455,26.8468182 27.0431818,34.5731818 17.5122727,34.5731818 C7.98136364,34.5731818 0.255,26.8468182 0.255,17.3159091 C0.255,7.785 7.98136364,0.0586363636 17.5122727,0.0586363636 C27.0431818,0.0586363636 34.7695455,7.785 34.7695455,17.3159091" id="Twitter-Circle" fill="#24A9E6"></path>
                            <path d="M25.3454545,10.3886364 C24.67,10.7986364 23.9236364,11.0968182 23.1259091,11.2563636 C22.4904545,10.5609091 21.5822727,10.1263636 20.5768182,10.1263636 C18.6495455,10.1263636 17.0854545,11.73 17.0854545,13.7077273 C17.0854545,13.9881818 17.1154545,14.2609091 17.1754545,14.5231818 C14.2727273,14.3736364 11.6995455,12.9495455 9.97590909,10.78 C9.675,11.3109091 9.50318182,11.9268182 9.50318182,12.5822727 C9.50318182,13.8245455 10.1195455,14.9209091 11.0572727,15.5631818 C10.4854545,15.5459091 9.94590909,15.3831818 9.47409091,15.1163636 L9.47409091,15.1604545 C9.47409091,16.8963636 10.6781818,18.3445455 12.2772727,18.6722727 C11.9845455,18.7563636 11.6754545,18.7981818 11.3568182,18.7981818 C11.1318182,18.7981818 10.9122727,18.7768182 10.6995455,18.735 C11.1440909,20.1572727 12.4331818,21.1931818 13.9618182,21.2204545 C12.7668182,22.1818182 11.26,22.7545455 9.62409091,22.7545455 C9.34227273,22.7545455 9.06363636,22.7381818 8.79090909,22.7054545 C10.3363636,23.72 12.1731818,24.3131818 14.145,24.3131818 C20.57,24.3131818 24.0822727,18.8568182 24.0822727,14.1236364 C24.0822727,13.9677273 24.0795455,13.8122727 24.0736364,13.6595455 C24.7559091,13.1540909 25.3486364,12.5240909 25.815,11.8059091 C25.1895455,12.0904545 24.5159091,12.2831818 23.8095455,12.3695455 C24.5309091,11.9268182 25.0845455,11.2245455 25.3454545,10.3886364" id="Twitter" fill="#FFFFFF"></path>
                        </g>
                    </g>
                </g>
            </g>
        </g>
    </g>
</svg>